<?xml version="1.0" encoding="utf-8"?>
<!-- Generator: Adobe Illustrator 23.0.1, SVG Export Plug-In . SVG Version: 6.00 Build 0)  -->
<svg version="1.1" id="Layer_1" xmlns="http://www.w3.org/2000/svg" xmlns:xlink="http://www.w3.org/1999/xlink" x="0px" y="0px"
	 viewBox="0 0 1469 300" style="enable-background:new 0 0 1469 300;" xml:space="preserve">
<style type="text/css">
	.st0{display:none;fill:#344358;}
	.st1{display:none;fill:#F39208;}
	.st2{fill:#FFFFFF;}
	.st3{font-family:'Helvetica';}
	.st4{font-size:222px;}
	.st5{letter-spacing:-59;}
	.st6{fill:#C6C6C6;}
</style>
<g id="Calque_1">
	<circle id="XMLID_2_" class="st0" cx="1103.4" cy="183.4" r="25.9"/>
	<circle id="XMLID_19_" class="st1" cx="1157.3" cy="118.9" r="30.8"/>
	<circle id="XMLID_20_" class="st0" cx="1161.7" cy="203.1" r="13"/>
	<text transform="matrix(1 0 0 1 210.9244 219.9371)" class="st2 st3 st4">facilever</text>
	<text transform="matrix(1 0 0 1 1037.5244 219.9371)" class="st2 st3 st4 st5"> </text>
	<text transform="matrix(1 0 0 1 1038.9244 219.9371)" class="st2 st3 st4">se</text>
	<g>
		<path class="st6" d="M80.2,83.7C54.5,36.5,91.4,11.3,91.4,11.3C73.9,14.4,44.3,37.5,69,92.1c5.2,11.4,11.2,21.6,17.6,31.1
			c4.2-3.4,8.5-6.9,13-10.5C92.3,103.2,85.6,93.6,80.2,83.7z"/>
		<path class="st6" d="M164.8,226c-0.7-36.9-28.7-68.3-54.4-99.8c-4.4,3.7-8.9,7.3-13.5,11.1c22,28.8,45.5,51.2,52.9,79.2
			c10.8,40.9-26.9,72.2-26.9,72.2S165.8,279.2,164.8,226z"/>
		<path class="st2" d="M146.2,89.7c22.7-32.7,12.3-62.4-7.7-73.2c0,0,4,4.3,7.1,11.9c-7.1,2.9-62.6,25.7-62.4,28.1
			c0.2,2.1,49.1-13.3,65.1-18.4c0.5,2.9,0.7,6,0.6,9.3c-16.1,5-64.9,20.5-62.8,24.9c1.9,4.2,43.7-8.3,61-13.6
			c-0.8,2.7-1.9,5.6-3.3,8.5c-14.5,4.2-51.7,15.1-50.5,17.2c1.1,1.9,27.7-2.4,42.9-5.1c-2.9,3.7-6.3,7.6-10.4,11.5
			c-9.4,2.5-25.6,7.1-25.9,9.3c-0.2,1.5,7.2,1.1,14.7,0.4c-5.2,4.3-10.2,8.4-15.1,12.3c-4.5,3.6-8.8,7.1-13,10.5
			c-35.1,28.1-60.3,48.6-76.3,79.9c-20.6,40.3,27.5,66.6,27.5,66.6s-7.7-8-12-21c23.8,2.1,112.5,9.6,113,6.4
			c0.4-3.1-90.1-16.8-115.8-20.6c-0.2-2.9-0.1-5.9,0.2-9.1c24.3,4.2,118.3,20.4,119.8,17.4s-91.3-25.8-116.1-31.8
			c1.1-2.7,2.3-5.4,3.9-8.1c23.1,5.7,109.1,26.8,110,24.2c0.9-2.4-73.4-29.3-99.4-38.7l0.1-0.1c2.2-2.5,4.5-4.9,6.7-7.3
			c21.3,8.3,86.9,33.3,88,28.8c1.1-4.5-55.9-33.5-74-42.6c4.5-4.2,9.1-8.3,13.5-12.1c11.6,8.8,48.1,36.1,49.4,34.2
			c1.3-1.8-25.8-33.1-36.3-45.2c2.7-2.2,5.4-4.4,8.1-6.6c4.6-3.8,9.2-7.5,13.5-11.1C124.6,114.3,137.1,102.9,146.2,89.7z"/>
	</g>
</g>
<g id="helix">
</g>
</svg>
